# xmcd CD database file
#
# Track frame offsets:
#	150
#	17588
#	35291
#	54097
#	72313
#	92966
#	112220
#	129208
#	148036
#	166546
#	184979
#	206693
#	221959
#	243284
#	260661
#	285458
#
# Disc length: 4099 seconds
#
# Revision: 0
# Processed by: cddbd v1.5.1PL2 Copyright (c) Steve Scherf et al.
# Submitted via: CDex 1.51
#
DISCID=ea100110
DTITLE=Various Artist - Top Hits USA RJ37
DYEAR=2006
DGENRE=Jazz
TTITLE0=Brian Culbertson - Let's Get Started
TTITLE1=Raul Midon - If You're Gonna Leave
TTITLE2=Donald Fagen - H Gang
TTITLE3=Nick Colionne - Always Thinking Of You (Without Piano)
TTITLE4=Kem - Find Your Way (Back Into My Life)
TTITLE5=Ramsey Lewis - Oh Happy Day
TTITLE6=Michael Buble - Home
TTITLE7=Beyonce - Wishing On A Star
TTITLE8=Mark Carter - Party On The Pier
TTITLE9=Jason Miles - Sexual Healing
TTITLE10=Dan Siegel - When The Time Comes
TTITLE11=Steve Cole - Spin
TTITLE12=Kevin Toney - Going Out Of My Head
TTITLE13=Willie and Lobo - Mediterraneo
TTITLE14=Aretha Franklin - A House Is Not A Home
TTITLE15=Incognito - It's Just One Of Those Things
EXTD=YEAR: 2006
EXTT0=
EXTT1=
EXTT2=
EXTT3=
EXTT4=
EXTT5=
EXTT6=
EXTT7=
EXTT8=
EXTT9=
EXTT10=
EXTT11=
EXTT12=
EXTT13=
EXTT14=
EXTT15=
PLAYORDER=
